<svg width="1108" height="399" viewBox="0 0 1108 399" fill="none" xmlns="http://www.w3.org/2000/svg">
<rect x="84.0557" y="0.949219" width="397.65" height="397.65" rx="198.825" fill="#C5A47E"/>
<path d="M177.864 176.48L198.2 135.123H232.466L197.688 196.817L233.406 259.537H198.799L177.864 217.411L156.928 259.537H122.407L158.039 196.817L123.347 135.123H157.527L177.864 176.48ZM321.589 209.977H273.225V259.537H243.232V135.123H326.46V158.28H273.225V186.905H321.589V209.977ZM385.163 215.616H368.928V259.537H338.935V135.123H387.898C402.652 135.123 414.188 138.399 422.505 144.95C430.822 151.501 434.98 160.758 434.98 172.721C434.98 181.38 433.214 188.557 429.682 194.254C426.207 199.951 420.739 204.565 413.276 208.097L439.253 258.255V259.537H407.124L385.163 215.616ZM368.928 192.459H387.898C393.594 192.459 397.867 190.978 400.715 188.016C403.62 184.997 405.073 180.81 405.073 175.455C405.073 170.1 403.62 165.913 400.715 162.894C397.81 159.818 393.537 158.28 387.898 158.28H368.928V192.459Z" fill="white"/>
<path d="M588.616 176.48L608.953 135.123H643.218L608.44 196.817L644.158 259.537H609.551L588.616 217.411L567.681 259.537H533.16L568.792 196.817L534.1 135.123H568.279L588.616 176.48ZM659.026 259.537V187.076H645.611V167.081H659.026V159.732C659.026 149.194 662.131 141.019 668.34 135.208C674.55 129.398 683.265 126.493 694.488 126.493C698.589 126.493 703.09 127.091 707.989 128.287L708.074 149.479C706.308 148.966 703.944 148.709 700.982 148.709C692.266 148.709 687.908 152.469 687.908 159.989V167.081H705.938V187.076H687.908V259.537H659.026ZM712.432 212.455C712.432 203.226 714.227 195.023 717.815 187.845C721.404 180.611 726.56 175.056 733.282 171.183C740.004 167.309 747.894 165.372 756.951 165.372C770.794 165.372 781.703 169.673 789.678 178.275C797.653 186.82 801.641 198.469 801.641 213.224V214.249C801.641 228.661 797.625 240.112 789.593 248.6C781.618 257.031 770.794 261.246 757.122 261.246C743.963 261.246 733.396 257.315 725.42 249.454C717.445 241.536 713.144 230.826 712.518 217.325L712.432 212.455ZM741.229 214.249C741.229 222.794 742.567 229.06 745.245 233.048C747.922 237.035 751.881 239.029 757.122 239.029C767.376 239.029 772.617 231.139 772.845 215.36V212.455C772.845 195.877 767.547 187.589 756.951 187.589C747.324 187.589 742.111 194.738 741.314 209.037L741.229 214.249Z" fill="black"/>
<path d="M870.257 193.143L860.772 192.459C851.714 192.459 845.904 195.308 843.34 201.004V259.537H814.544V167.081H841.546L842.486 178.958C847.328 169.901 854.078 165.372 862.737 165.372C865.813 165.372 868.491 165.714 870.77 166.397L870.257 193.143ZM923.663 261.246C909.478 261.246 897.999 257.031 889.227 248.6C880.454 240.112 876.067 229.089 876.067 215.531V213.138C876.067 203.682 877.805 195.336 881.28 188.102C884.812 180.867 889.939 175.284 896.661 171.354C903.383 167.366 911.358 165.372 920.586 165.372C933.575 165.372 943.829 169.417 951.348 177.506C958.868 185.538 962.627 196.76 962.627 211.173V222.367H905.376C906.402 227.551 908.652 231.624 912.127 234.586C915.602 237.548 920.102 239.029 925.628 239.029C934.743 239.029 941.863 235.839 946.99 229.459L960.149 245.011C956.561 249.967 951.462 253.926 944.854 256.888C938.303 259.793 931.239 261.246 923.663 261.246ZM920.416 187.589C911.985 187.589 906.972 193.172 905.376 204.337H934.429V202.115C934.543 197.501 933.375 193.941 930.926 191.434C928.476 188.871 924.973 187.589 920.416 187.589ZM1026.37 259.537C1025.35 257.657 1024.44 254.894 1023.64 251.249C1018.34 257.914 1010.93 261.246 1001.42 261.246C992.706 261.246 985.3 258.626 979.205 253.385C973.109 248.087 970.062 241.45 970.062 233.475C970.062 223.449 973.764 215.873 981.17 210.746C988.576 205.619 999.342 203.055 1013.47 203.055H1022.36V198.185C1022.36 189.697 1018.68 185.453 1011.33 185.453C1004.5 185.453 1001.08 188.814 1001.08 195.536H972.283C972.283 186.592 976.071 179.329 983.648 173.746C991.281 168.163 1000.99 165.372 1012.79 165.372C1024.58 165.372 1033.89 168.249 1040.73 174.002C1047.56 179.756 1051.07 187.646 1051.24 197.672V238.602C1051.35 247.09 1052.66 253.584 1055.17 258.084V259.537H1026.37ZM1008.34 240.738C1011.93 240.738 1014.89 239.969 1017.23 238.431C1019.62 236.893 1021.33 235.156 1022.36 233.219V218.436H1013.98C1003.96 218.436 998.943 222.936 998.943 231.937C998.943 234.557 999.826 236.694 1001.59 238.346C1003.36 239.941 1005.61 240.738 1008.34 240.738ZM1097.64 259.537H1068.76V128.287H1097.64V259.537Z" fill="#C5A47E"/>
</svg>
