<?xml version="1.0" standalone="no"?>
<!DOCTYPE svg PUBLIC "-//W3C//DTD SVG 20010904//EN"
 "http://www.w3.org/TR/2001/REC-SVG-20010904/DTD/svg10.dtd">
<svg version="1.0" xmlns="http://www.w3.org/2000/svg"
 width="739.000000pt" height="739.000000pt" viewBox="0 0 739.000000 739.000000"
 preserveAspectRatio="xMidYMid meet">
<metadata>
Created by potrace 1.14, written by Peter Selinger 2001-2017
</metadata>
<g transform="translate(0.000000,739.000000) scale(0.100000,-0.100000)"
fill="#000000" stroke="none">
<path d="M3577 6294 c-1 -1 -42 -5 -92 -8 -49 -3 -99 -8 -110 -10 -11 -2 -42
-7 -70 -10 -80 -11 -105 -16 -190 -37 -44 -11 -91 -23 -105 -25 -47 -9 -265
-86 -355 -126 -451 -198 -845 -529 -1119 -941 -194 -291 -340 -647 -392 -957
-3 -19 -10 -60 -15 -90 -18 -99 -24 -202 -24 -390 0 -200 6 -292 31 -440 12
-70 15 -86 35 -165 11 -44 22 -88 24 -97 8 -35 85 -259 105 -305 103 -230 247
-471 365 -612 181 -218 378 -401 559 -519 39 -26 73 -50 76 -53 3 -4 57 -35
120 -71 292 -163 581 -260 930 -312 176 -27 517 -27 690 0 241 37 455 93 625
165 17 7 32 13 35 14 36 12 181 82 245 118 156 88 355 226 455 317 98 88 218
211 285 291 76 91 255 346 255 364 0 2 13 25 29 50 33 52 118 238 156 340 72
195 108 335 140 550 20 130 22 182 20 390 -2 132 -6 258 -10 280 -3 22 -13 78
-20 125 -12 75 -21 123 -29 155 -2 6 -6 24 -10 40 -43 172 -124 389 -202 542
-136 265 -271 449 -484 664 -216 217 -396 347 -675 488 -250 127 -486 202
-765 246 -19 3 -46 7 -60 10 -73 12 -444 28 -453 19z"/>
</g>
</svg>
